HIERARCHY
ROOT Hips
{
	OFFSET 0.000000 0.000000 0.000000
	CHANNELS 6 Xposition Yposition Zposition Zrotation Yrotation Xrotation 
	JOINT LeftUpLeg_virtual
	{
		OFFSET 0.000000 0.000000 0.000000
		CHANNELS 3 Zrotation Yrotation Xrotation
		JOINT LeftUpLeg
		{
			OFFSET 10.205400 -3.823500 0.155100
			CHANNELS 3 Zrotation Yrotation Xrotation
			JOINT LeftLeg
			{
				OFFSET 0.708757 -12.982077 0.567790
				CHANNELS 3 Zrotation Yrotation Xrotation
				JOINT LeftFoot
				{
					OFFSET -0.708756 -10.717838 -2.184338
					CHANNELS 3 Zrotation Yrotation Xrotation
					JOINT LeftToeBase
					{
						OFFSET 0.108149 -7.191104 7.560241
						CHANNELS 3 Zrotation Yrotation Xrotation
						End Site
						{
							OFFSET 0.000000 0.000000 0.000000
						}
					}
				}
			}
		}
	}
	JOINT RightUpLeg_virtual
	{
		OFFSET 0.000000 0.000000 0.000000
		CHANNELS 3 Zrotation Yrotation Xrotation
		JOINT RightUpLeg
		{
			OFFSET -10.205400 -3.823500 0.005500
			CHANNELS 3 Zrotation Yrotation Xrotation
			JOINT RightLeg
			{
				OFFSET -0.708756 -12.982134 0.610632
				CHANNELS 3 Zrotation Yrotation Xrotation
				JOINT RightFoot
				{
					OFFSET 0.708754 -10.717769 -1.945823
					CHANNELS 3 Zrotation Yrotation Xrotation
					JOINT RightToeBase
					{
						OFFSET -0.108140 -7.191069 7.372968
						CHANNELS 3 Zrotation Yrotation Xrotation
						End Site
						{
							OFFSET 0.000000 0.000000 0.000000
						}
					}
				}
			}
		}
	}
	JOINT Spine_virtual
	{
		OFFSET 0.000000 0.000000 0.000000
		CHANNELS 3 Zrotation Yrotation Xrotation
		JOINT Spine
		{
			OFFSET 0.000000 6.876099 0.125700
			CHANNELS 3 Zrotation Yrotation Xrotation
			JOINT Spine1
			{
				OFFSET 0.000000 8.022060 0.146608
				CHANNELS 3 Zrotation Yrotation Xrotation
				JOINT Spine2
				{
					OFFSET 0.000000 9.168068 0.167552
					CHANNELS 3 Zrotation Yrotation Xrotation
					JOINT Neck_virtual
					{
						OFFSET 0.000000 0.000000 0.000000
						CHANNELS 3 Zrotation Yrotation Xrotation
						JOINT Neck
						{
							OFFSET 0.000000 10.314075 0.188496
							CHANNELS 3 Zrotation Yrotation Xrotation
							JOINT Head
							{
								OFFSET 0.000000 7.643700 -2.377400
								CHANNELS 3 Zrotation Yrotation Xrotation
								End Site
								{
									OFFSET 0.000000 0.000000 0.000000
								}
							}
						}
					}
					JOINT LeftShoulder_virtual
					{
						OFFSET 0.000000 0.000000 0.000000
						CHANNELS 3 Zrotation Yrotation Xrotation
						JOINT LeftShoulder
						{
							OFFSET 4.392200 8.824978 0.174984
							CHANNELS 3 Zrotation Yrotation Xrotation
							JOINT LeftArm
							{
								OFFSET 8.771219 -2.981674 -0.026999
								CHANNELS 3 Zrotation Yrotation Xrotation
								JOINT LeftForeArm
								{
									OFFSET 8.512804 0.000000 -0.000000
									CHANNELS 3 Zrotation Yrotation Xrotation
									JOINT LeftHand
									{
										OFFSET 18.484802 0.000000 -0.000000
										CHANNELS 3 Zrotation Yrotation Xrotation
										End Site
										{
											OFFSET 0.000000 0.000000 0.000000
										}
									}
								}
							}
						}
					}
					JOINT RightShoulder_virtual
					{
						OFFSET 0.000000 0.000000 0.000000
						CHANNELS 3 Zrotation Yrotation Xrotation
						JOINT RightShoulder
						{
							OFFSET -4.392200 8.824993 0.141379
							CHANNELS 3 Zrotation Yrotation Xrotation
							JOINT RightArm
							{
								OFFSET -8.771282 -2.981682 -0.094208
								CHANNELS 3 Zrotation Yrotation Xrotation
								JOINT RightForeArm
								{
									OFFSET -8.494598 0.000000 0.000000
									CHANNELS 3 Zrotation Yrotation Xrotation
									JOINT RightHand
									{
										OFFSET -18.483803 0.000000 0.000001
										CHANNELS 3 Zrotation Yrotation Xrotation
										End Site
										{
											OFFSET 0.000000 0.000000 0.000000
										}
									}
								}
							}
						}
					}
				}
			}
		}
	}
}
MOTION
Frames: 4
Frame Time: 0.033333
9.065751 34.398258 -77.110481 0.213758 -76.924671 -0.321064 -0.068079 -5.500748 11.865539 -10.839331 -1.164162 -35.174996 15.896191 12.714635 14.773749 -8.124473 6.185226 15.562262 0.000000 0.000000 0.000000 5.059340 -4.225110 9.982181 -6.183325 10.330455 -34.857864 -3.512859 7.730885 19.019615 14.653447 6.094852 10.885487 0.000000 0.000000 0.000000 2.346495 -1.157731 -0.064297 -1.313502 1.457810 -11.601726 -2.548213 -2.155418 9.709308 0.012054 -0.011518 -0.026159 -2.948537 0.002688 12.444412 -12.437941 -2.621166 20.028473 0.000000 0.000000 0.000000 -0.626100 0.739214 9.432245 -12.119273 -7.222461 2.363779 -52.648990 24.207744 5.781274 -1.640943 -24.066715 1.631075 0.000000 0.000000 0.000000 -5.263492 1.737908 8.586497 32.686253 4.205290 6.929041 38.666022 -11.073460 7.284788 -7.474401 27.764355 -0.374657 0.000000 0.000000 0.000000 
8.999757 34.391533 -77.111717 1.344564 -76.908258 -1.370620 -0.288410 -5.567589 11.841772 -10.952369 -1.113985 -35.254766 15.886043 12.763627 15.055077 -7.982949 6.283095 16.044466 0.000000 0.000000 0.000000 4.888952 -4.162951 9.927938 -6.334671 9.876580 -34.484928 -3.251133 8.419814 18.242238 15.327920 6.587032 11.094438 0.000000 0.000000 0.000000 2.191330 -1.106174 -0.164006 -1.390522 1.340893 -11.611599 -2.663871 -2.137253 9.635881 0.086218 -0.005047 -0.114417 -2.900518 -0.029408 12.493855 -12.390563 -2.767705 19.941376 0.000000 0.000000 0.000000 -0.538767 0.702998 9.449931 -12.167407 -7.546267 2.505917 -52.027986 23.765145 8.173421 -1.615536 -24.337393 1.779693 0.000000 0.000000 0.000000 -5.267231 1.734885 8.645258 32.650497 4.092324 6.899960 38.844727 -11.477830 7.659484 -7.434968 27.707308 -0.414743 0.000000 0.000000 0.000000 
8.904723 34.393833 -77.128235 0.914285 -77.035101 -0.960927 -0.167228 -5.351822 11.875445 -10.864723 -1.571303 -35.125774 15.972204 12.182215 15.136662 -7.678625 6.440586 15.823725 0.000000 0.000000 0.000000 4.784071 -4.026434 9.772262 -5.618454 9.143629 -34.188143 -2.877673 8.512434 18.767188 14.918989 6.443991 10.581004 0.000000 0.000000 0.000000 2.270047 -0.962126 -0.333149 -1.404276 1.203667 -11.624945 -2.560520 -2.058145 9.530445 0.061143 -0.040451 -0.064943 -2.966282 0.051704 12.421678 -12.107809 -2.646799 19.961351 0.000000 0.000000 0.000000 -0.608802 0.690803 9.368381 -12.095719 -8.112719 2.707598 -49.705756 22.837178 13.668651 -1.604293 -25.050591 1.987759 0.000000 0.000000 0.000000 -5.408108 1.737116 8.594581 32.608081 4.153869 6.937015 39.082954 -12.396198 8.002717 -7.372061 27.318523 -0.355479 0.000000 0.000000 0.000000 
8.790465 34.401577 -77.183815 1.587072 -77.098895 -1.703596 -0.319596 -5.001863 11.832495 -10.653415 -2.173906 -34.919964 16.386652 11.867444 15.307299 -7.787250 6.330099 15.653822 0.000000 0.000000 0.000000 4.477408 -3.748400 9.620799 -5.129712 8.719924 -33.555688 -2.593851 8.202212 19.185195 14.635528 6.441811 9.886577 0.000000 0.000000 0.000000 2.071481 -0.825252 -0.495882 -1.468338 1.264832 -11.766407 -2.511499 -2.064048 9.517158 0.078084 -0.027619 -0.075490 -2.896849 -0.155597 12.367335 -11.759952 -2.745270 19.999492 0.000000 0.000000 0.000000 -0.578785 0.505455 9.285557 -12.044273 -8.854946 2.998756 -46.114015 21.036143 21.273294 -1.623763 -26.288196 2.331412 0.000000 0.000000 0.000000 -5.360915 1.599334 8.550422 32.448449 4.314690 6.988405 39.602386 -13.628137 8.143813 -7.296315 26.707112 -0.722591 0.000000 0.000000 0.000000 
